<svg width="200" height="75" viewBox="56 120 200 75" class="css-1j8o68f">
<defs id="SvgjsDefs1163"></defs>
    <!-- <g id="SvgjsG1164" featurekey="rootContainer" transform="matrix(6.25,0,0,6.25,0,0)" fill="#000000">
        <path xmlns="http://www.w3.org/2000/svg" d="M5 0h45v45a5 5 0 0 1-5 5H0V5a5 5 0 0 1 5-5z">
        </path>
    </g> -->
    <g id="SvgjsG1165" featurekey="symbolFeature-0" transform="matrix(0.5531089008051437,0,0,0.5531089008051437,128.66034232348403,112.18088879028421)" fill="#212121">
        <g xmlns="http://www.w3.org/2000/svg" transform="translate(0,-952.36216)">
            <path style="opacity:1;fill:#212121;fill-opacity:1;stroke:none;stroke-width:5;stroke-miterlimit:4;stroke-dasharray:none;stroke-opacity:1" d="m 49.413928,966.49888 a 35.863514,35.863514 0 0 0 -35.864383,35.86432 35.863514,35.863514 0 0 0 35.864383,35.8623 35.863514,35.863514 0 0 0 35.864381,-35.8623 35.863514,35.863514 0 0 0 -35.864381,-35.86432 z m -7.167957,8.07822 a 30.776534,28.764263 73.136072 0 1 30.239605,26.9498 30.776534,28.764263 73.136072 0 1 -24.04676,34.0506 30.776534,28.764263 73.136072 0 1 -33.115733,-26.7352 30.776534,28.764263 73.136072 0 1 24.04676,-34.05049 30.776534,28.764263 73.136072 0 1 2.876128,-0.21471 z">
            </path>
            <path style="opacity:1;fill:#212121;fill-opacity:1;stroke:none;stroke-width:5;stroke-miterlimit:4;stroke-dasharray:none;stroke-opacity:1" d="m 45.870854,986.9471 c -26.178468,7.01446 -45.54962556,19.6066 -43.2659419,28.1246 1.3096203,4.7933 5.3740763,7.47 17.8786089,7.2411 -9.723652,-0.2296 -11.849694,-2.6114 -12.9266032,-6.5563 -2.0686973,-7.7186 15.4840672,-19.12846 39.2048472,-25.4844 23.720893,-6.35606 44.627025,-5.25117 46.694603,2.46773 1.045792,3.9846 -3.17121,9.17397 -11.593715,14.26737 11.065529,-6.085 16.81707,-12.50145 15.539949,-17.33635 -2.281223,-8.51878 -25.353211,-9.73831 -51.531748,-2.72375 z">
            </path>
        </g>
    </g>
    <g id="SvgjsG1166" featurekey="nameFeature-0" transform="matrix(0.3739515707152828,0,0,0.3739515707152828,55.517936826800444,176.4431951638503)" fill="#212121">
        <path d="M23.672 40 l0 -5.0781 q-1.2109375 2.12890625 -2.36328125 3.125 t-2.6074 1.6016 t-3.8965 0.58594 q-1.2109375 -0.01953125 -2.421875 -0.283203125 t-2.3438 -0.74219 t-2.2168 -1.1523 t-1.9629 -1.5527 q-2.16796875 -2.1875 -3.369140625 -5.068359375 t-1.2012 -6.2793 q0 -2.08984375 0.5078125 -4.04296875 t1.4258 -3.6523 t2.2168 -3.0957 t2.8906 -2.3926 t3.4277 -1.543 t3.8477 -0.54688 q2.3046875 0 4.00390625 0.615234375 t3.6523 2.2949 l4.375 0 l0 6.6016 l-6.0352 0 q-0.8984375 -1.38671875 -1.689453125 -2.01171875 t-1.7188 -1.0352 t-2.5879 -0.41016 q-1.640625 0 -3.046875 0.7421875 t-2.4316 2.002 t-1.6113 2.9688 t-0.58594 3.5059 q0 1.77734375 0.52734375 3.37890625 t1.6016 2.8809 t2.5 1.9629 t3.0469 0.68359 q2.0703125 0 3.61328125 -1.2109375 t2.2266 -3.3008 l-5.6445 0 l0 -5.3516 l13.711 0 l0 15.801 l-5.8398 0 z M50.53914453125 34.6484 l2.9492 0 l-1.3281 -4.2578 l-9.1016 0 l-1.3281 4.2578 l3.125 0 l0 5.3516 l-11.23 0 l0 -5.3516 l2.207 0 l8.0664 -24.258 l7.832 0 l7.8906 24.258 l2.1484 0 l0 5.3516 l-11.23 0 l0 -5.3516 z M44.60214453125 25.391 l5.9766 0 l-3.0078 -9.6289 z M65.5712578125 10.390999999999998 l12.676 0 l0 5.3711 l-3.125 0 l0 18.887 l6.4453 0 q0.25390625 0 0.498046875 -0.146484375 t0.42969 -0.38086 t0.30273 -0.50781 t0.11719 -0.52734 l0 -3.9648 l6.3281 0 l0 10.879 l-23.672 0 l0 -5.3516 l3.0664 0 l0 -18.887 l-3.0664 0 l0 -5.3711 z M108.23933984375 34.6484 l2.9492 0 l-1.3281 -4.2578 l-9.1016 0 l-1.3281 4.2578 l3.125 0 l0 5.3516 l-11.23 0 l0 -5.3516 l2.207 0 l8.0664 -24.258 l7.832 0 l7.8906 24.258 l2.1484 0 l0 5.3516 l-11.23 0 l0 -5.3516 z M102.30233984375 25.391 l5.9766 0 l-3.0078 -9.6289 z M142.666453125 19.395 q-1.09375 -1.5625 -1.97265625 -2.216796875 t-1.8945 -0.9375 t-2.1289 -0.2832 q-1.640625 0 -3.046875 0.732421875 t-2.4316 1.9922 t-1.6113 2.9297 t-0.58594 3.5449 q0 1.89453125 0.576171875 3.564453125 t1.5918 2.9199 t2.4219 1.9824 t3.0859 0.73242 q1.171875 0 2.1875 -0.380859375 t1.8457 -1.0059 t1.4551 -1.4355 t0.97656 -1.6895 l6.2891 1.7578 q-0.60546875 1.9140625 -1.77734375 3.544921875 t-2.8223 2.8223 t-3.7109 1.875 t-4.4434 0.68359 q-2.01171875 0 -3.84765625 -0.546875 t-3.4277 -1.543 t-2.8906 -2.4023 t-2.2168 -3.1152 t-1.4258 -3.6719 t-0.50781 -4.0918 q0 -3.18359375 1.11328125 -5.966796875 t3.0469 -4.8633 t4.541 -3.2813 t5.6152 -1.2012 q2.40234375 0 4.04296875 0.595703125 t3.6133 2.3535 l4.375 0 l0 6.6016 l-6.0352 0 z M159.84623515625 34.6484 l3.0664 0 l0 -19.082 l-3.5938 0 l0 3.8281 l-6.3672 0 l0 -9.0039 l26.934 0 l0 9.0039 l-6.4063 0 l0 -3.8281 l-4.082 0 l0 19.082 l3.125 0 l0 5.3516 l-12.676 0 l0 -5.3516 z M183.8427421875 10.390999999999998 l12.676 0 l0 5.3516 l-3.125 0 l0 18.906 l3.125 0 l0 5.3516 l-12.676 0 l0 -5.3516 l3.0664 0 l0 -18.906 l-3.0664 0 l0 -5.3516 z M220.20307421875 19.395 q-1.09375 -1.5625 -1.97265625 -2.216796875 t-1.8945 -0.9375 t-2.1289 -0.2832 q-1.640625 0 -3.046875 0.732421875 t-2.4316 1.9922 t-1.6113 2.9297 t-0.58594 3.5449 q0 1.89453125 0.576171875 3.564453125 t1.5918 2.9199 t2.4219 1.9824 t3.0859 0.73242 q1.171875 0 2.1875 -0.380859375 t1.8457 -1.0059 t1.4551 -1.4355 t0.97656 -1.6895 l6.2891 1.7578 q-0.60546875 1.9140625 -1.77734375 3.544921875 t-2.8223 2.8223 t-3.7109 1.875 t-4.4434 0.68359 q-2.01171875 0 -3.84765625 -0.546875 t-3.4277 -1.543 t-2.8906 -2.4023 t-2.2168 -3.1152 t-1.4258 -3.6719 t-0.50781 -4.0918 q0 -3.18359375 1.11328125 -5.966796875 t3.0469 -4.8633 t4.541 -3.2813 t5.6152 -1.2012 q2.40234375 0 4.04296875 0.595703125 t3.6133 2.3535 l4.375 0 l0 6.6016 l-6.0352 0 z M256.69148828125 34.6484 l2.9492 0 l-1.3281 -4.2578 l-9.1016 0 l-1.3281 4.2578 l3.125 0 l0 5.3516 l-11.23 0 l0 -5.3516 l2.207 0 l8.0664 -24.258 l7.832 0 l7.8906 24.258 l2.1484 0 l0 5.3516 l-11.23 0 l0 -5.3516 z M250.75448828125 25.391 l5.9766 0 l-3.0078 -9.6289 z M271.1182015625 10.390999999999998 l11.367 0 q2.03125 0 3.896484375 0.52734375 t3.4766 1.4844 t2.9297 2.2949 t2.2559 2.9785 t1.4453 3.5352 t0.50781 3.9453 t-0.50781 3.9453 t-1.4453 3.5449 t-2.2559 3.0078 t-2.9297 2.3242 t-3.4766 1.4941 t-3.8965 0.52734 l-11.367 0 l0 -5.3516 l2.3633 0 l0 -18.887 l-2.3633 0 l0 -5.3711 z M279.9656015625 15.762 l0 18.887 l2.4805 0 q1.58203125 0 2.98828125 -0.7421875 t2.4414 -2.0215 t1.6406 -3.0078 t0.60547 -3.7207 q0 -1.97265625 -0.60546875 -3.69140625 t-1.6406 -2.9883 t-2.4414 -1.9922 t-2.9883 -0.72266 l-2.4805 0 z M316.13049609375 10.390999999999998 l12.676 0 l0 5.3711 l-2.6367 0 l-7.9102 24.238 l-8.0078 0 l-7.6758 -24.238 l-2.8516 0 l0 -5.3711 l12.695 0 l0 5.3711 l-3.1641 0 l5.1563 16.797 l5.1367 -16.797 l-3.418 0 l0 -5.3711 z M332.568328125 10.390999999999998 l23.555 0 l0 10.098 l-6.3672 0 l0 -4.1992 l-7.5977 0 l0 5.8398 l5.8789 0 l0 5.6641 l-5.8789 0 l0 6.8555 l7.5977 0 l0 -5.2539 l6.3672 0 l0 10.605 l-23.555 0 l0 -5.3516 l3.1055 0 l0 -18.359 l-3.1055 0 l0 -5.8984 z M379.37747265625 10.390999999999998 l11.25 0 l0 5.3711 l-2.4023 0 l0 24.238 l-6.4844 0 l-12.324 -19.141 l0 13.789 l2.4805 0 l0 5.3516 l-11.23 0 l0 -5.3516 l2.4414 0 l0 -18.887 l-2.4023 0 l0 -5.3711 l8.9453 0 l12.246 19.395 l0 -14.023 l-2.5195 0 l0 -5.3711 z M400.0537546875 34.6484 l3.0664 0 l0 -19.082 l-3.5938 0 l0 3.8281 l-6.3672 0 l0 -9.0039 l26.934 0 l0 9.0039 l-6.4063 0 l0 -3.8281 l-4.082 0 l0 19.082 l3.125 0 l0 5.3516 l-12.676 0 l0 -5.3516 z M422.83935171875 10.390999999999998 l11.875 0 l0 5.3711 l-2.7148 0 l0 12.285 q0 1.6796875 0.380859375 2.8515625 t1.0645 1.9141 t1.6211 1.084 t2.0508 0.3418 q1.15234375 0 2.099609375 -0.29296875 t1.6211 -1.0059 t1.0352 -1.9043 t0.36133 -2.9883 l0 -12.285 l-3.1445 0 l0 -5.3711 l11.875 0 l0 5.3711 l-2.3633 0 l0 11.523 q0 3.125 -0.8984375 5.556640625 t-2.4707 4.1113 t-3.6914 2.5586 t-4.541 0.87891 q-2.40234375 0 -4.4921875 -0.869140625 t-3.6426 -2.5195 t-2.4512 -4.0137 t-0.89844 -5.3516 l0 -11.875 l-2.6758 0 l0 -5.3711 z M455.6835625 10.390999999999998 l15.664 0 q2.28515625 0 4.08203125 0.68359375 t3.0273 1.8262 t1.8848 2.6563 t0.6543 3.1543 q0 1.50390625 -0.322265625 2.63671875 t-0.9375 2.0117 t-1.5137 1.5527 t-2.0508 1.2207 q0.99609375 0.5078125 1.7578125 1.552734375 t1.1523 2.7051 l0.99609 3.8477 l2.4414 0 l0.039063 5.7617 l-8.5938 0 l-1.1719 -7.0313 q-0.17578125 -1.25 -0.537109375 -2.158203125 t-0.9668 -1.4844 t-1.4746 -0.84961 t-2.0605 -0.27344 l-2.5195 0 l0 6.4453 l2.7148 0 l0 5.3516 l-12.266 0 l0 -5.3516 l3.0664 0 l0 -18.887 l-3.0664 0 l0 -5.3711 z M465.2345625 15.762 l0 7.168 l3.8867 0 q1.11328125 0 2.001953125 -0.205078125 t1.5234 -0.64453 t0.97656 -1.1035 t0.3418 -1.582 q0 -1.71875 -1.23046875 -2.67578125 t-3.6133 -0.95703 l-3.8867 0 z M486.71139453125 10.390999999999998 l23.555 0 l0 10.098 l-6.3672 0 l0 -4.1992 l-7.5977 0 l0 5.8398 l5.8789 0 l0 5.6641 l-5.8789 0 l0 6.8555 l7.5977 0 l0 -5.2539 l6.3672 0 l0 10.605 l-23.555 0 l0 -5.3516 l3.1055 0 l0 -18.359 l-3.1055 0 l0 -5.8984 z M529.0475390625 18.73 q-0.09765625 -0.68359375 -0.478515625 -1.2890625 t-0.97656 -1.0449 t-1.3477 -0.69336 t-1.5723 -0.25391 q-0.7421875 0 -1.38671875 0.15625 t-1.123 0.47852 t-0.76172 0.83008 t-0.2832 1.2109 q0 0.87890625 0.380859375 1.396484375 t0.97656 0.84961 t1.3184 0.52734 t1.4063 0.42969 l5.3711 1.7969 q1.11328125 0.390625 2.08984375 1.07421875 t1.6895 1.6602 t1.123 2.2461 t0.41016 2.8516 q0 2.1484375 -0.791015625 3.92578125 t-2.2168 3.0469 t-3.418 1.9727 t-4.4141 0.70313 q-1.69921875 0 -3.212890625 -0.380859375 t-2.7637 -1.1035 t-2.1875 -1.7285 t-1.4648 -2.2754 l-2.0117 0 l0 -5.8789 l7.0703 0 l0 1.2109 q0 0.87890625 0.283203125 1.62109375 t0.84961 1.2891 t1.4258 0.84961 t2.0117 0.30273 q1.7578125 0 2.67578125 -0.810546875 t0.91797 -2.2559 q0 -0.7421875 -0.322265625 -1.240234375 t-0.83008 -0.83984 t-1.1328 -0.57617 t-1.2305 -0.42969 l-4.4727 -1.4453 q-1.26953125 -0.390625 -2.451171875 -1.09375 t-2.0898 -1.7578 t-1.4453 -2.4707 t-0.53711 -3.2324 q0 -2.109375 0.78125 -3.759765625 t2.1875 -2.7832 t3.3398 -1.7188 t4.2383 -0.58594 q1.81640625 0 3.359375 0.419921875 t2.7637 1.123 t2.0703 1.6113 t1.2988 1.8848 l1.9531 0 l0 5.8984 l-7.0703 0 l0 -1.7188 z">
        </path>
    </g>
</svg>